<?xml version="1.0" standalone="no"?>
<!DOCTYPE svg PUBLIC "-//W3C//DTD SVG 20010904//EN"
 "http://www.w3.org/TR/2001/REC-SVG-20010904/DTD/svg10.dtd">
<svg version="1.0" xmlns="http://www.w3.org/2000/svg"
 width="200.000000pt" height="200.000000pt" viewBox="0 0 200.000000 200.000000"
 preserveAspectRatio="xMidYMid meet">

<g transform="translate(0.000000,200.000000) scale(0.100000,-0.100000)"
fill="#000000" stroke="none">
<path d="M512 1443 c3 -231 6 -242 77 -316 l36 -38 -30 -21 c-50 -36 -175
-164 -175 -180 0 -15 123 -139 169 -171 l25 -16 -17 -153 c-9 -84 -17 -163
-17 -175 l0 -23 410 0 c384 0 410 1 410 18 0 9 -7 84 -17 166 l-16 150 34 25
c64 48 179 164 179 181 0 21 -145 162 -190 185 l-32 17 35 36 c65 66 71 93 75
320 l4 202 -71 0 -71 0 0 -70 0 -71 -67 3 -68 3 -3 68 -3 67 -64 0 -65 0 0
-70 0 -70 -70 0 -70 0 0 70 0 70 -65 0 -65 0 0 -70 0 -70 -70 0 -70 0 0 70 0
70 -71 0 -70 0 3 -207z m647 -328 c127 -30 290 -143 308 -213 5 -23 -1 -33
-58 -85 -83 -75 -212 -141 -310 -157 -125 -21 -272 0 -388 56 -54 27 -191 150
-191 173 0 19 62 81 125 127 66 47 154 89 214 103 60 15 231 12 300 -4z"/>
<path d="M905 1087 c-59 -28 -77 -47 -104 -107 -49 -107 -5 -227 102 -282 61
-31 161 -23 219 17 57 41 91 108 90 181 0 61 -6 74 -24 56 -21 -21 -82 -14
-105 11 -30 33 -34 55 -18 94 8 20 13 38 10 41 -3 3 -31 7 -63 9 -45 3 -68 -1
-107 -20z m139 -146 c25 -28 17 -79 -16 -104 -64 -48 -135 45 -81 106 21 23
75 22 97 -2z"/>
</g>
</svg>
